<?xml version="1.0" standalone="no"?>
<!DOCTYPE svg PUBLIC "-//W3C//DTD SVG 20010904//EN"
 "http://www.w3.org/TR/2001/REC-SVG-20010904/DTD/svg10.dtd">
<svg version="1.0" xmlns="http://www.w3.org/2000/svg"
 width="600.000000pt" height="600.000000pt" viewBox="0 0 600.000000 600.000000"
 preserveAspectRatio="xMidYMid meet">
<g transform="translate(0.000000,600.000000) scale(0.100000,-0.100000)"
fill="#000000" stroke="none">
<path d="M2943 5578 c-18 -13 -93 -98 -168 -190 -169 -207 -166 -206 -291 -86
-29 29 -54 46 -58 40 -13 -21 -24 -107 -16 -122 5 -9 25 -34 45 -55 20 -22 39
-51 42 -64 7 -29 -20 -86 -94 -200 -80 -124 -143 -243 -174 -335 -20 -58 -34
-82 -47 -84 -10 -2 -51 11 -92 28 -41 16 -83 30 -92 30 -49 0 -84 -130 -75
-274 6 -100 21 -151 53 -183 30 -30 56 -26 125 16 68 42 93 45 122 19 13 -13
62 -81 107 -153 93 -146 146 -217 235 -321 l62 -71 2 -74 c0 -41 4 -96 7 -124
10 -91 -79 -362 -168 -512 -42 -72 -161 -194 -212 -217 -75 -35 -106 -33 -195
14 l-80 43 -68 -30 c-82 -37 -166 -57 -336 -78 -96 -11 -144 -23 -191 -44 -35
-16 -66 -33 -69 -38 -12 -20 25 -53 76 -68 29 -8 127 -28 218 -44 132 -23 183
-36 256 -69 l92 -40 78 24 c95 31 185 40 240 25 61 -17 180 -100 241 -170 85
-97 180 -228 211 -289 53 -107 111 -323 132 -493 l11 -91 -36 -37 c-53 -54
-56 -92 -18 -188 52 -130 79 -240 102 -418 24 -188 33 -221 61 -230 54 -17 72
14 89 155 27 228 60 368 117 505 33 78 27 122 -21 175 -35 39 -36 42 -30 98
15 153 79 405 130 509 39 81 152 237 237 325 64 67 163 133 221 149 55 15 144
6 239 -25 l78 -24 90 40 c72 31 125 46 257 69 200 35 263 52 286 78 24 27 14
38 -61 73 -50 22 -95 33 -191 44 -166 19 -252 39 -335 77 l-68 30 -78 -41
c-91 -48 -117 -51 -188 -17 -134 62 -243 217 -334 474 -53 152 -59 190 -49
333 l9 129 59 67 c83 95 135 166 244 333 52 80 102 148 111 152 21 8 53 -3
107 -35 69 -41 95 -44 124 -15 32 32 47 83 53 186 10 144 -26 271 -75 271 -9
0 -51 -14 -92 -30 -41 -17 -83 -30 -93 -28 -14 2 -25 22 -41 73 -29 90 -82
193 -167 327 -79 124 -109 180 -109 204 0 19 34 69 72 106 26 24 28 31 22 70
-4 24 -11 54 -16 67 -9 24 -9 24 -61 -26 -118 -113 -127 -113 -238 20 -47 56
-110 133 -139 170 -85 107 -135 128 -197 85z m150 -469 c174 -89 319 -242 402
-423 52 -113 69 -195 69 -326 -1 -101 -4 -125 -30 -200 -65 -185 -188 -309
-373 -372 -96 -33 -239 -31 -333 4 -149 56 -259 150 -323 277 -52 105 -69 179
-68 306 1 214 89 413 251 573 63 63 171 140 234 167 49 21 122 18 171 -6z"/>
</g>
</svg>
